<?xml version="1.0" encoding="utf-8"?> <!-- Uploaded to: SVG Repo, www.svgrepo.com, Generator: SVG Repo Mixer Tools -->
<svg width="800px" height="800px" viewBox="0 0 200 200" xmlns="http://www.w3.org/2000/svg" fill="none">
  <g transform="translate(0 0)">
    <path fill="#000000" fill-rule="evenodd" clip-rule="evenodd"
      d="M55.087 40H83c13.807 0 25 11.193 25 25S96.807 90 83 90H52c-.335 0-.668-.007-1-.02V158a6 6 0 0 0 6 6h9a6 6 0 0 0 6-6v-18a6 6 0 0 1 6-6h24a6 6 0 0 1 6 6v18a6 6 0 0 0 6 6h9a6 6 0 0 0 6-6V54c0-14.36-11.641-26-26-26H77c-9.205 0-17.292 4.783-21.913 12ZM39 86.358C31.804 81.97 27 74.046 27 65c0-9.746 5.576-18.189 13.712-22.313C45.528 27.225 59.952 16 77 16h26c16.043 0 29.764 9.942 35.338 24H147c9.941 0 18 8.059 18 18v65c0 9.941-8.059 18-18 18h-6v17c0 9.941-8.059 18-18 18h-9c-9.941 0-18-8.059-18-18v-12H84v12c0 9.941-8.059 18-18 18h-9c-9.941 0-18-8.059-18-18V86.358ZM141 129h6a6 6 0 0 0 6-6V58a6 6 0 0 0-6-6h-6.052c.035.662.052 1.33.052 2v75ZM52 52c-7.18 0-13 5.82-13 13s5.82 13 13 13h31c7.18 0 13-5.82 13-13s-5.82-13-13-13H52Z"
    />
  </g>
  <g transform="scale(9) translate(-1 -1)">
    <path
      d="M11.7518 6.24359C12.983 5.01246 14.782 4.69543 16.3057 5.29249L13.5532 8.04496C13.2216 8.37659 13.2216 8.91425 13.5532 9.24588L14.7541 10.4468C15.0857 10.7784 15.6234 10.7784 15.955 10.4468L18.7075 7.69432C19.3046 9.21796 18.9875 11.017 17.7564 12.2482C16.5253 13.4793 14.7262 13.7963 13.2026 13.1993L7.89927 18.5026C7.23602 19.1658 6.16068 19.1658 5.49744 18.5026C4.83419 17.8393 4.83419 16.764 5.49744 16.1007L10.8007 10.7974C10.2037 9.2738 10.5207 7.47472 11.7518 6.24359Z"
      stroke="#464455"
      stroke-linecap="round"
      stroke-linejoin="round"
    />
  </g>
</svg>
